<?xml version="1.0" encoding="UTF-8"?>
<svg xmlns="http://www.w3.org/2000/svg" width="229" height="238" viewBox="0 0 229 238" fill="none">
  <circle cx="114.279" cy="114.48" r="114.279" fill="#354A9F" fill-opacity="0.05"></circle>
  <path opacity="0.15" d="M116.635 238C175.411 238 223.059 235.886 223.059 233.279C223.059 230.671 175.411 228.558 116.635 228.558C57.8592 228.558 10.2118 230.671 10.2118 233.279C10.2118 235.886 57.8592 238 116.635 238Z" fill="#99A4B1"></path>
  <path d="M203.251 122.37C203.265 140.096 198.022 157.428 188.185 172.175C178.349 186.921 164.36 198.42 147.989 205.216C131.617 212.013 113.598 213.802 96.2094 210.357C78.821 206.912 62.8446 198.389 50.3004 185.864C37.7563 173.34 29.2077 157.377 25.7359 139.994C22.2641 122.611 24.0248 104.589 30.7955 88.2066C37.5662 71.8244 49.0428 57.8178 63.7739 47.9581C78.505 38.0984 95.829 32.8284 113.555 32.8145C113.602 32.8145 113.649 32.8145 113.696 32.8145C137.447 32.8145 160.226 42.2497 177.021 59.0446C193.816 75.8394 203.251 98.6182 203.251 122.37Z" stroke="#354A9F" stroke-miterlimit="10"></path>
  <path d="M108.097 169.201C108.059 167.473 107.895 165.751 107.606 164.047L116.933 155.784L108.752 141.63L96.8889 145.639C94.2624 143.425 91.2732 141.681 88.0531 140.485L85.5986 128.295H69.2367L66.7822 140.485C63.5623 141.681 60.5731 143.425 57.9466 145.639L46.084 141.63L37.9028 155.784L47.2296 164.046C46.5751 167.451 46.5751 170.95 47.2296 174.355L37.903 182.618L46.0841 196.771L57.9468 192.762C60.5734 194.976 63.5626 196.72 66.7826 197.916L69.2371 210.106H85.5994L88.0539 197.916C91.2739 196.72 94.2631 194.976 96.8896 192.762L108.752 196.771L116.933 182.618L107.607 174.355C107.895 172.651 108.059 170.928 108.097 169.201ZM76.7158 185.563C73.4796 185.563 70.3161 184.603 67.6254 182.805C64.9346 181.007 62.8374 178.452 61.599 175.462C60.3606 172.472 60.0365 169.182 60.6679 166.008C61.2992 162.835 62.8576 159.919 65.1459 157.631C67.4342 155.342 70.3497 153.784 73.5236 153.153C76.6976 152.521 79.9875 152.845 82.9773 154.084C85.9672 155.322 88.5226 157.419 90.3205 160.11C92.1184 162.801 93.078 165.964 93.078 169.201C93.0653 173.536 91.3374 177.691 88.2716 180.756C85.2058 183.822 81.0514 185.55 76.7158 185.563Z" fill="#986015"></path>
  <path d="M106.98 169.984C106.941 168.204 106.772 166.43 106.474 164.674L116.083 156.161L107.654 141.579L95.4325 145.709C92.7265 143.429 89.6469 141.632 86.3295 140.4L83.8009 127.841H66.9434L64.4148 140.4C61.0974 141.632 58.0178 143.429 55.3118 145.71L43.0901 141.58L34.6614 156.161L44.2701 164.674C43.5958 168.182 43.5958 171.787 44.2701 175.295L34.6614 183.808L43.0901 198.389L55.3118 194.259C58.0178 196.54 61.0974 198.337 64.4148 199.569L66.9434 212.128H83.8009L86.3295 199.57C89.6469 198.337 92.7265 196.54 95.4325 194.259L107.654 198.389L116.083 183.807L106.474 175.294C106.772 173.539 106.941 171.764 106.98 169.984ZM74.5004 185.929C71.2642 185.929 68.1008 184.969 65.41 183.171C62.7192 181.373 60.6221 178.818 59.3836 175.828C58.1452 172.838 57.8212 169.548 58.4525 166.374C59.0839 163.2 60.6422 160.285 62.9305 157.997C65.2188 155.708 68.1343 154.15 71.3083 153.519C74.4822 152.887 77.7722 153.211 80.762 154.45C83.7518 155.688 86.3072 157.785 88.1051 160.476C89.903 163.167 90.8627 166.33 90.8627 169.566C90.85 173.902 89.122 178.057 86.0562 181.122C82.9904 184.188 78.836 185.916 74.5004 185.929Z" fill="#F9C934"></path>
  <path d="M155.07 28L126.798 228.728" stroke="#354A9F" stroke-miterlimit="10"></path>
  <path d="M110.379 92.8984H82.908C82.0295 92.8984 81.1596 93.0715 80.3479 93.4077C79.5363 93.7439 78.7988 94.2366 78.1776 94.8578C77.5564 95.479 77.0637 96.2165 76.7275 97.0281C76.3913 97.8397 76.2183 98.7096 76.2183 99.5881V157.777C76.2183 159.551 76.9231 161.253 78.1776 162.507C79.4322 163.762 81.1338 164.467 82.908 164.467H159.652L110.379 92.8984Z" fill="#242F5D"></path>
  <path d="M168.824 173.637H92.2601C88.7116 173.636 85.3085 172.227 82.7994 169.718C80.2902 167.209 78.8806 163.805 78.8806 160.257V111.036H111.408L118.695 102.068H168.824C172.372 102.068 175.775 103.478 178.285 105.987C180.794 108.496 182.203 111.899 182.203 115.448V160.257C182.203 163.805 180.794 167.209 178.285 169.718C175.776 172.227 172.372 173.636 168.824 173.637Z" fill="#242F5D"></path>
  <path d="M157.911 158.958L91.2996 158.723C91.0213 158.674 90.7725 158.521 90.6045 158.293C90.4366 158.066 90.3624 157.783 90.3974 157.503L90.4517 69.2092C90.4521 68.5376 90.8567 67.9943 91.3554 67.9961L157.966 68.2314C158.245 68.28 158.493 68.4337 158.661 68.6608C158.829 68.8878 158.904 69.1707 158.869 69.4509L158.814 157.745C158.814 158.417 158.409 158.96 157.911 158.958Z" fill="#C2C8E1"></path>
  <path d="M160.517 68.1418L93.9048 67.8984C93.7763 67.8997 93.6506 67.9362 93.5413 68.0038L158.006 68.2317C158.284 68.2802 158.533 68.434 158.701 68.661C158.869 68.888 158.943 69.1709 158.908 69.4511L158.854 157.745C158.886 158.018 158.814 158.293 158.653 158.516C158.492 158.739 158.253 158.894 157.984 158.95L160.472 158.959C160.971 158.961 161.375 158.416 161.376 157.744L161.419 69.3624C161.454 69.0821 161.38 68.7991 161.212 68.5719C161.044 68.3447 160.796 68.1907 160.517 68.1418Z" fill="#242F5D"></path>
  <path d="M157.995 68.1336L91.3957 67.9961C91.2771 67.9958 91.1597 68.0189 91.0501 68.064C90.9405 68.1091 90.8408 68.1754 90.7568 68.259C90.6728 68.3426 90.6061 68.442 90.5605 68.5514C90.5149 68.6608 90.4912 68.7782 90.491 68.8967L90.4896 69.567C90.4901 69.3276 90.5857 69.0981 90.7553 68.9291C90.925 68.7601 91.1548 68.6654 91.3943 68.6659L157.994 68.8033C158.233 68.8039 158.463 68.8995 158.632 69.0692C158.801 69.2389 158.895 69.4688 158.895 69.7083L158.896 69.0379C158.896 68.9194 158.873 68.802 158.828 68.6923C158.783 68.5827 158.717 68.4831 158.633 68.3991C158.549 68.3151 158.45 68.2485 158.34 68.2029C158.231 68.1573 158.114 68.1338 157.995 68.1336Z" fill="#354A9F"></path>
  <path d="M150.112 79.3154H99.1531V95.8798H150.112V79.3154Z" fill="white"></path>
  <path d="M166.162 173.637H89.5977C87.8407 173.637 86.1009 173.29 84.4776 172.618C82.8543 171.946 81.3794 170.96 80.137 169.718C78.8946 168.475 77.9091 167 77.2367 165.377C76.5643 163.754 76.2183 162.014 76.2183 160.257V111.036H108.746L116.033 102.068H166.162C169.71 102.068 173.113 103.478 175.622 105.987C178.131 108.496 179.541 111.899 179.541 115.448V160.257C179.541 162.014 179.195 163.754 178.523 165.377C177.85 167 176.865 168.475 175.622 169.718C174.38 170.96 172.905 171.946 171.282 172.618C169.658 173.29 167.919 173.637 166.162 173.637Z" fill="#354A9F"></path>
</svg>
